#!OML:ASF F:\VICON\USERDATA\INSTALL\rory3\rory3.ASF
:FULLY-SPECIFIED
:DEGREES
289
root 0.604325 17.9064 27.4864 -1.7487 0.884784 1.18452
lowerback 8.7429 -1.33246 -2.83285
upperback 1.88408 -1.95492 2.20388
thorax -2.77108 -0.951115 4.09579
lowerneck -15.2597 -2.48039 -1.35525
upperneck 18.4721 -2.99483 -0.481961
head 8.26692 -1.56329 -0.282139
rclavicle 1.68967e-015 1.82882e-014
rhumerus -35.8265 -18.7277 -77.261
rradius 25.8866
rwrist 7.06946
rhand -14.1721 23.6047
rfingers 7.12502
rthumb 11.9632 -6.03344
lclavicle 1.68967e-015 1.82882e-014
lhumerus -21.9007 -5.63651 77.7497
lradius 35.1088
lwrist 1.8071
lhand -26.4566 31.6846
lfingers 7.12502
lthumb 0.104747 61.6643
rfemur -25.2192 4.7467 19.9962
rtibia 21.3299
rfoot -5.74944 -4.63877
rtoes -1.05781
lfemur 9.83722 -5.21995 -25.5072
ltibia 32.7629
lfoot -14.3495 -1.35692
ltoes -21.1256
290
root 0.577212 17.9131 27.6872 -1.66285 1.01124 0.980733
lowerback 8.57627 -1.4068 -2.71975
upperback 1.79513 -2.03654 2.32356
thorax -2.76311 -0.991239 4.16119
lowerneck -15.1486 -2.48663 -1.47759
upperneck 18.5675 -2.98511 -0.440981
head 8.28188 -1.56351 -0.246603
rclavicle -1.94809e-014 -7.95139e-015
rhumerus -35.9933 -18.7593 -77.0721
rradius 25.6471
rwrist 7.31878
rhand -14.2819 23.3833
rfingers 7.12502
rthumb 11.8573 -6.261
lclavicle -1.94809e-014 -7.95139e-015
lhumerus -22.2118 -5.73377 77.9265
lradius 35.0454
lwrist 1.76978
lhand -26.261 31.6386
lfingers 7.12502
lthumb 0.293633 61.6182
rfemur -25.1773 5.4115 20.1421
rtibia 21.8934
rfoot -4.47287 -4.12344
rtoes -0.428866
lfemur 9.66752 -4.96969 -24.9731
ltibia 34.0748
lfoot -13.342 -2.29176
ltoes -22.4491
291
root 0.548716 17.9266 27.892 -1.6504 1.02061 0.789338
lowerback 8.61696 -1.43491 -2.66614
upperback 1.61108 -2.06553 2.43548
thorax -2.97188 -0.998413 4.25701
lowerneck -14.9604 -2.44327 -1.47529
upperneck 18.7043 -2.92533 -0.465289
head 8.29339 -1.5383 -0.246864
rclavicle -2.07233e-014 1.11319e-014
rhumerus -36.2445 -19.3191 -76.6069
rradius 25.0663
rwrist 8.09232
rhand -14.4245 23.4322
rfingers 7.12502
rthumb 11.7197 -6.21996
lclavicle -2.07233e-014 1.11319e-014
lhumerus -22.7721 -5.64308 78.1735
lradius 34.9474
lwrist 1.59798
lhand -26.7055 31.5558
lfingers 7.12502
lthumb -0.135612 61.5355
rfemur -25.0995 6.15391 20.2687
rtibia 22.2651
rfoot -3.4341 -3.90848
rtoes -3.392
lfemur 9.28722 -4.71654 -24.4553
ltibia 35.4486
lfoot -11.8816 -3.83492
ltoes -19.7541
292
root 0.529382 17.9505 28.1088 -1.90913 1.09722 0.562521
lowerback 8.80194 -1.49477 -2.45364
upperback 1.55307 -2.12461 2.53183
thorax -3.13372 -1.02501 4.25243
lowerneck -15.0164 -2.35446 -1.34596
upperneck 18.9331 -2.79092 -0.666231
head 8.37474 -1.48671 -0.322684
rclavicle -1.99779e-014 -2.22639e-014
rhumerus -36.6475 -19.5145 -76.2525
rradius 24.7875
rwrist 8.00491
rhand -14.9676 24.0078
rfingers 7.12502
rthumb 11.196 -5.6735
lclavicle -1.99779e-014 -2.22639e-014
lhumerus -23.3828 -5.48793 78.4539
lradius 34.9913
lwrist 1.47028
lhand -27.1152 31.4097
lfingers 7.12502
lthumb -0.531398 61.3888
rfemur -24.718 6.42014 20.5361
rtibia 22.7437
rfoot -2.59159 -3.07677
rtoes -5.03286
lfemur 8.98329 -4.08745 -23.8668
ltibia 36.8644
lfoot -10.2356 -5.44375
ltoes -19.336
293
root 0.515197 17.9664 28.3217 -2.08503 1.19464 0.0365531
lowerback 8.83588 -1.53062 -1.83172
upperback 1.52793 -2.10888 2.67252
thorax -3.19772 -1.02105 4.04758
lowerneck -15.2122 -2.38708 -1.18054
upperneck 19.2923 -2.81282 -0.945945
head 8.52445 -1.51467 -0.452532
rclavicle -4.70623e-014 4.6118e-014
rhumerus -37.0952 -19.3438 -76.1202
rradius 24.9545
rwrist 7.55454
rhand -15.1962 23.8051
rfingers 7.12502
rthumb 10.9755 -5.888
lclavicle -4.70623e-014 4.6118e-014
lhumerus -23.7102 -5.33893 78.7962
lradius 34.8308
lwrist 1.50025
lhand -27.2128 30.841
lfingers 7.12502
lthumb -0.625595 60.8198
rfemur -24.408 6.46191 21.1914
rtibia 23.3997
rfoot -1.74144 -2.11642
rtoes 0.282826
lfemur 8.62339 -3.30323 -22.8915
ltibia 38.4259
lfoot -8.67062 -6.95624
ltoes -25.9091
294
root 0.497594 17.9566 28.5285 -2.28217 1.09638 -0.469427
lowerback 8.92943 -1.52644 -1.27797
upperback 1.43855 -2.04509 2.79744
thorax -3.36302 -0.990551 3.86378
lowerneck -14.9352 -2.42857 -1.17199
upperneck 19.4295 -2.8661 -0.998743
head 8.51986 -1.54531 -0.475379
rclavicle 6.36111e-015 -2.22639e-014
rhumerus -37.6112 -18.9978 -76.1159
rradius 25.4531
rwrist 7.39992
rhand -14.7509 21.6622
rfingers 7.12502
rthumb 11.405 -8.00763
lclavicle 6.36111e-015 -2.22639e-014
lhumerus -24.0344 -5.2283 79.0549
lradius 34.2686
lwrist 1.53376
lhand -27.1937 29.8703
lfingers 7.12502
lthumb -0.607172 59.8492
rfemur -24.0485 6.60608 21.9477
rtibia 24.3314
rfoot -1.20901 -2.12599
rtoes 6.88754
lfemur 8.53731 -2.62597 -21.8887
ltibia 40.0833
lfoot -6.8278 -8.64429
ltoes -31.5299
295
root 0.477648 17.9466 28.7292 -2.31922 0.819156 -0.794489
lowerback 8.88559 -1.45792 -0.958387
upperback 1.34932 -1.91857 2.89213
thorax -3.44828 -0.928592 3.76836
lowerneck -14.5905 -2.43935 -1.32367
upperneck 19.3752 -2.87957 -0.867667
head 8.44382 -1.54945 -0.40243
rclavicle 4.32357e-015 -2.38542e-015
rhumerus -37.8131 -19.2799 -75.7664
rradius 25.011
rwrist 7.35878
rhand -14.4152 20.5301
rfingers 7.12502
rthumb 11.7288 -9.12155
lclavicle 4.32357e-015 -2.38542e-015
lhumerus -24.4417 -5.35115 79.3186
lradius 33.8576
lwrist 1.45552
lhand -27.5305 29.2275
lfingers 7.12502
lthumb -0.932461 59.2052
rfemur -23.8593 6.68756 22.5971
rtibia 25.3851
rfoot -0.969003 -2.6011
rtoes 9.13538
lfemur 7.98933 -1.84682 -21.0799
ltibia 41.8985
lfoot -3.82611 -10.1118
ltoes -28.1287
296
root 0.46049 17.9531 28.9328 -2.35026 0.564578 -0.87691
lowerback 8.78737 -1.40707 -0.960572
upperback 1.32485 -1.84897 2.95984
thorax -3.42167 -0.893939 3.8296
lowerneck -14.6006 -2.42746 -1.48479
upperneck 19.4929 -2.86983 -0.661287
head 8.49144 -1.53554 -0.30692
rclavicle 8.99501e-015 0
rhumerus -37.7994 -19.8954 -75.3062
rradius 24.4023
rwrist 7.94966
rhand -14.3565 19.5984
rfingers 7.12502
rthumb 11.7853 -10.05
lclavicle 8.99501e-015 0
lhumerus -24.9866 -5.02399 79.5794
lradius 33.855
lwrist 1.15767
lhand -26.7483 28.3862
lfingers 7.12502
lthumb -0.17703 58.3659
rfemur -23.6415 6.55377 23.0162
rtibia 26.3765
rfoot -1.00302 -2.26846
rtoes 9.14072
lfemur 7.08895 -0.885719 -20.5063
ltibia 43.821
lfoot -0.319151 -11.2792
ltoes -21.9618
297
root 0.441517 17.9677 29.1364 -2.42887 0.309582 -1.15593
lowerback 8.76998 -1.33523 -0.706685
upperback 1.2615 -1.72568 3.02823
thorax -3.49225 -0.833719 3.7445
lowerneck -14.4654 -2.41808 -1.45552
upperneck 19.5405 -2.86627 -0.664146
head 8.48244 -1.53237 -0.310865
rclavicle 9.83984e-015 -6.36111e-015
rhumerus -38.114 -20.4436 -74.8768
rradius 24.172
rwrist 8.32157
rhand -14.1723 19.7949
rfingers 7.12502
rthumb 11.963 -9.84328
lclavicle 9.83984e-015 -6.36111e-015
lhumerus -25.3793 -4.97917 79.8218
lradius 33.676
lwrist 1.3965
lhand -24.1391 23.459
lfingers 7.12502
lthumb 2.34304 53.4259
rfemur -23.3391 6.4511 23.6427
rtibia 27.222
rfoot -1.16343 -1.07334
rtoes 11.0211
lfemur 6.11867 0.065602 -19.6748
ltibia 45.8101
lfoot 3.13708 -12.6834
ltoes -17.9667
298
root 0.419268 17.989 29.3349 -2.71165 0.175801 -1.65216
lowerback 8.99657 -1.28883 -0.18305
upperback 1.28797 -1.60831 3.10011
thorax -3.61162 -0.780211 3.51705
lowerneck -14.4002 -2.41086 -1.22491
upperneck 19.5869 -2.88337 -0.796999
head 8.48019 -1.53736 -0.394941
rclavicle -1.63997e-015 6.36111e-015
rhumerus -38.3123 -20.4801 -74.8553
rradius 24.1928
rwrist 8.22302
rhand -13.913 19.6088
rfingers 7.12502
rthumb 12.213 -10.0146
lclavicle -1.63997e-015 6.36111e-015
lhumerus -25.7963 -5.02058 80.0053
lradius 33.7798
lwrist 1.79465
lhand -24.1601 26.5092
lfingers 7.12502
lthumb 2.32278 56.4763
rfemur -22.6803 6.55316 24.4899
rtibia 27.8422
rfoot -1.47564 -0.656268
rtoes 12.6568
lfemur 5.25072 0.841497 -18.6043
ltibia 47.8612
lfoot 6.1827 -14.1647
ltoes -14.5549
299
root 0.394995 18.0026 29.5269 -2.92569 0.202955 -1.70978
lowerback 9.16279 -1.25482 -0.145464
upperback 1.35289 -1.55946 3.06673
thorax -3.64159 -0.756691 3.45908
lowerneck -14.5715 -2.42927 -0.986097
upperneck 19.6709 -2.92913 -0.951623
head 8.53302 -1.55716 -0.494847
rclavicle -5.71506e-015 0
rhumerus -38.2339 -20.3513 -75.0262
rradius 24.1794
rwrist 7.89247
rhand -14.0652 19.2377
rfingers 7.12502
rthumb 12.0662 -10.3945
lclavicle -5.71506e-015 0
lhumerus -26.1989 -5.10614 80.2024
lradius 33.8193
lwrist 1.25103
lhand -23.4628 29.4599
lfingers 7.12502
lthumb 2.9962 59.4186
rfemur -21.9246 6.76455 24.7832
rtibia 28.2423
rfoot -2.27895 -1.35942
rtoes 11.7174
lfemur 4.28077 1.36167 -18.085
ltibia 49.9805
lfoot 8.37246 -15.2758
ltoes -13.369
300
root 0.3725 18.0079 29.7158 -3.07129 0.152315 -1.86698
lowerback 9.19544 -1.21425 -0.0714669
upperback 1.45284 -1.49702 3.14623
thorax -3.55936 -0.727933 3.49174
lowerneck -14.7842 -2.40626 -1.04274
upperneck 19.642 -2.87189 -0.988225
head 8.56235 -1.53791 -0.493954
rclavicle 8.44835e-015 -1.90833e-014
rhumerus -37.9979 -20.3209 -75.0197
rradius 23.9953
rwrist 7.7315
rhand -14.2949 19.661
rfingers 7.12502
rthumb 11.8447 -9.98396
lclavicle 8.44835e-015 -1.90833e-014
lhumerus -26.5353 -4.99922 80.5321
lradius 33.79
lwrist 0.823034
lhand -23.0496 30.5494
lfingers 7.12502
lthumb 3.39517 60.5021
rfemur -21.1668 6.99617 25.1897
rtibia 28.5315
rfoot -3.05154 -1.74168
rtoes 10.8372
lfemur 3.20904 1.90135 -17.4514
ltibia 52.1853
lfoot 11.1421 -16.1394
ltoes -11.324
301
root 0.346882 18.0242 29.9057 -3.24652 0.0646773 -2.2244
lowerback 9.22746 -1.19675 0.183819
upperback 1.63812 -1.44963 3.23492
thorax -3.39152 -0.710039 3.43133
lowerneck -15.2326 -2.40425 -1.08229
upperneck 19.7014 -2.85954 -0.95353
head 8.66523 -1.5309 -0.48147
rclavicle 3.77691e-015 -4.53229e-014
rhumerus -37.6221 -20.6508 -75.0369
rradius 23.8001
rwrist 8.17003
rhand -14.1539 19.6771
rfingers 7.12502
rthumb 11.9808 -9.96007
lclavicle 3.77691e-015 -4.53229e-014
lhumerus -26.7779 -4.79666 80.7492
lradius 33.7753
lwrist 0.411887
lhand -23.7036 29.5988
lfingers 7.12502
lthumb 2.7636 59.5606
rfemur -20.3751 7.31936 25.8385
rtibia 28.7433
rfoot -3.54723 -1.77918
rtoes 11.5407
lfemur 1.9833 2.45493 -16.6068
ltibia 54.4613
lfoot 15.124 -16.8047
ltoes -5.68128
302
root 0.319701 18.0456 30.0956 -3.58296 0.0112017 -2.55175
lowerback 9.55163 -1.17902 0.389163
upperback 1.78821 -1.40103 3.27548
thorax -3.42224 -0.688542 3.35861
lowerneck -15.4568 -2.44907 -1.02597
upperneck 19.6247 -2.94815 -0.879909
head 8.67998 -1.56012 -0.478907
rclavicle -1.68967e-014 2.62396e-014
rhumerus -37.356 -20.9123 -75.131
rradius 23.7678
rwrist 8.46033
rhand -13.8539 19.1869
rfingers 7.12502
rthumb 12.27 -10.4332
lclavicle -1.68967e-014 2.62396e-014
lhumerus -27.2201 -4.79621 80.9586
lradius 33.9301
lwrist 0.114718
lhand -23.8102 29.3652
lfingers 7.12502
lthumb 2.66065 59.3283
rfemur -19.3296 7.78338 26.4672
rtibia 28.8059
rfoot -4.58906 -2.5767
rtoes 9.2121
lfemur 0.948299 2.9543 -15.7919
ltibia 56.7637
lfoot 17.9954 -17.5492
ltoes -3.62755
